<svg version="1.1" xmlns="http://www.w3.org/2000/svg" viewBox="0 0 970 221" width="970" height="221" class="excalidraw-svg"><!-- svg-source:excalidraw --><metadata></metadata><defs><style class="style-fonts">
      </style></defs><rect x="0" y="0" width="970" height="221" fill="#ffffff"></rect><g stroke-linecap="round" transform="translate(310 10) rotate(0 100 37.5)"><path d="M8 0 C51.74 -1.27, 85.78 -0.07, 192 0 C200.09 -2.71, 200.43 6.22, 200 8 C197.91 27.44, 196.51 48.87, 200 67 C197.73 75.64, 199.56 72.97, 192 75 C130.78 74.1, 71.02 72.9, 8 75 C-0.32 72.22, 0.36 74.72, 0 67 C-1.84 50.24, 1.47 41.51, 0 8 C2.2 1.91, 1.94 -0.48, 8 0" stroke="none" stroke-width="0" fill="#2E3048"></path><path d="M8 0 C45.66 0.59, 81.28 0.79, 192 0 M8 0 C58.24 -0.06, 107.87 1.16, 192 0 M192 0 C196.04 0.53, 200.88 4.29, 200 8 M192 0 C197.53 0.56, 198.67 4.4, 200 8 M200 8 C201.26 19.08, 200.83 34.9, 200 67 M200 8 C199.08 30.67, 199.83 53.37, 200 67 M200 67 C200.6 70.73, 197.82 73.28, 192 75 M200 67 C198.31 72.4, 198.27 75.81, 192 75 M192 75 C153.37 76.61, 113.66 76.63, 8 75 M192 75 C152.09 77.45, 112.34 76.8, 8 75 M8 75 C0.78 74.71, -0.18 72.86, 0 67 M8 75 C4.5 74.98, 2.16 72.43, 0 67 M0 67 C-1.15 49.8, 0.83 31.63, 0 8 M0 67 C-0.66 51.33, 0.56 33.71, 0 8 M0 8 C0.44 4.66, 1.12 -1.31, 8 0 M0 8 C-0.62 0.6, 3.68 2.27, 8 0" stroke="#2E3048" stroke-width="2" fill="none"></path></g><g transform="translate(346.37451171875 15.300000000000004) rotate(0 63.62548828125 32.199999999999996)"><text x="63.62548828125" y="11.830273437499999" font-family="Meiryo, Yu Gothic, Helvetica, sans-serif" font-size="14px" fill="#ffffff" text-anchor="middle" style="white-space: pre;" direction="ltr" dominant-baseline="alphabetic">TORASAN/</text><text x="63.62548828125" y="27.9302734375" font-family="Meiryo, Yu Gothic, Helvetica, sans-serif" font-size="14px" fill="#ffffff" text-anchor="middle" style="white-space: pre;" direction="ltr" dominant-baseline="alphabetic">^be8414da725fe979</text><text x="63.62548828125" y="44.03027343749999" font-family="Meiryo, Yu Gothic, Helvetica, sans-serif" font-size="14px" fill="#ffffff" text-anchor="middle" style="white-space: pre;" direction="ltr" dominant-baseline="alphabetic"></text><text x="63.62548828125" y="60.130273437499994" font-family="Meiryo, Yu Gothic, Helvetica, sans-serif" font-size="14px" fill="#ffffff" text-anchor="middle" style="white-space: pre;" direction="ltr" dominant-baseline="alphabetic">TORASAN/</text></g><g stroke-linecap="round" transform="translate(10 151) rotate(0 55 30)"><path d="M8 0 C31.94 -0.43, 46.18 0.78, 102 0 C110.09 -2.71, 110.43 6.22, 110 8 C108.03 22.55, 106.64 39.11, 110 52 C107.73 60.64, 109.56 57.97, 102 60 C70.97 59.84, 41.4 58.64, 8 60 C-0.32 57.22, 0.36 59.72, 0 52 C-1.94 38.88, 1.38 33.81, 0 8 C2.2 1.91, 1.94 -0.48, 8 0" stroke="none" stroke-width="0" fill="#C8E0D2"></path><path d="M8 0 C27.66 0.77, 45.28 0.97, 102 0 M8 0 C33.76 -0.41, 58.91 0.8, 102 0 M102 0 C106.04 0.53, 110.88 4.29, 110 8 M102 0 C107.53 0.56, 108.67 4.4, 110 8 M110 8 C111.33 15.82, 110.9 28.37, 110 52 M110 8 C109.2 24.82, 109.95 41.69, 110 52 M110 52 C110.6 55.73, 107.82 58.28, 102 60 M110 52 C108.31 57.4, 108.27 60.81, 102 60 M102 60 C82.78 60.72, 62.48 60.74, 8 60 M102 60 C81.51 61.62, 61.19 60.98, 8 60 M8 60 C0.78 59.71, -0.18 57.86, 0 52 M8 60 C4.5 59.98, 2.16 57.43, 0 52 M0 52 C-1.04 39.1, 0.94 25.23, 0 8 M0 52 C-0.64 40.48, 0.58 27, 0 8 M0 8 C0.44 4.66, 1.12 -1.31, 8 0 M0 8 C-0.62 0.6, 3.68 2.27, 8 0" stroke="#4A8C6F" stroke-width="2" fill="none"></path></g><g transform="translate(23.37255859375 164.9) rotate(0 41.62744140625 16.099999999999994)"><text x="41.62744140625" y="11.830273437499999" font-family="Meiryo, Yu Gothic, Helvetica, sans-serif" font-size="14px" fill="#2E3048" text-anchor="middle" style="white-space: pre;" direction="ltr" dominant-baseline="alphabetic">.claude/skills/</text><text x="41.62744140625" y="27.9302734375" font-family="Meiryo, Yu Gothic, Helvetica, sans-serif" font-size="14px" fill="#2E3048" text-anchor="middle" style="white-space: pre;" direction="ltr" dominant-baseline="alphabetic">40 skills</text></g><g stroke-linecap="round"><g transform="translate(410 91) rotate(0 -172.5 30)"><path d="M0 0 C-68.77 13.08, -138.53 25.21, -345 60 M0 0 C-94.05 14.92, -188.16 32.03, -345 60" stroke="#1e1e1e" stroke-width="2" fill="none"></path></g><g transform="translate(410 91) rotate(0 -172.5 30)"><path d="M-323.38 47.45 C-326.95 50.97, -332.45 53.68, -345 60 M-323.38 47.45 C-329.17 49.99, -335.48 54.62, -345 60" stroke="#1e1e1e" stroke-width="2" fill="none"></path></g><g transform="translate(410 91) rotate(0 -172.5 30)"><path d="M-320.37 64.29 C-324.4 64.45, -330.51 63.79, -345 60 M-320.37 64.29 C-326.84 62.24, -333.96 62.29, -345 60" stroke="#1e1e1e" stroke-width="2" fill="none"></path></g></g><mask></mask><g stroke-linecap="round" transform="translate(130 151) rotate(0 55 30)"><path d="M8 0 C31.94 -0.43, 46.18 0.78, 102 0 C110.09 -2.71, 110.43 6.22, 110 8 C108.03 22.55, 106.64 39.11, 110 52 C107.73 60.64, 109.56 57.97, 102 60 C70.97 59.84, 41.4 58.64, 8 60 C-0.32 57.22, 0.36 59.72, 0 52 C-1.94 38.88, 1.38 33.81, 0 8 C2.2 1.91, 1.94 -0.48, 8 0" stroke="none" stroke-width="0" fill="#F0AA8F"></path><path d="M8 0 C27.66 0.77, 45.28 0.97, 102 0 M8 0 C33.76 -0.41, 58.91 0.8, 102 0 M102 0 C106.04 0.53, 110.88 4.29, 110 8 M102 0 C107.53 0.56, 108.67 4.4, 110 8 M110 8 C111.33 15.82, 110.9 28.37, 110 52 M110 8 C109.2 24.82, 109.95 41.69, 110 52 M110 52 C110.6 55.73, 107.82 58.28, 102 60 M110 52 C108.31 57.4, 108.27 60.81, 102 60 M102 60 C82.78 60.72, 62.48 60.74, 8 60 M102 60 C81.51 61.62, 61.19 60.98, 8 60 M8 60 C0.78 59.71, -0.18 57.86, 0 52 M8 60 C4.5 59.98, 2.16 57.43, 0 52 M0 52 C-1.04 39.1, 0.94 25.23, 0 8 M0 52 C-0.64 40.48, 0.58 27, 0 8 M0 8 C0.44 4.66, 1.12 -1.31, 8 0 M0 8 C-0.62 0.6, 3.68 2.27, 8 0" stroke="#E07A5F" stroke-width="2" fill="none"></path></g><g transform="translate(138.693359375 156.85) rotate(0 46.306640625 24.14999999999999)"><text x="46.306640625" y="11.830273437499999" font-family="Meiryo, Yu Gothic, Helvetica, sans-serif" font-size="14px" fill="#2E3048" text-anchor="middle" style="white-space: pre;" direction="ltr" dominant-baseline="alphabetic">.claude/knowle</text><text x="46.306640625" y="27.9302734375" font-family="Meiryo, Yu Gothic, Helvetica, sans-serif" font-size="14px" fill="#2E3048" text-anchor="middle" style="white-space: pre;" direction="ltr" dominant-baseline="alphabetic">dge/</text><text x="46.306640625" y="44.03027343749999" font-family="Meiryo, Yu Gothic, Helvetica, sans-serif" font-size="14px" fill="#2E3048" text-anchor="middle" style="white-space: pre;" direction="ltr" dominant-baseline="alphabetic">21 files</text></g><g stroke-linecap="round"><g transform="translate(410 91) rotate(0 -112.5 30)"><path d="M0 0 C-44.7 13.2, -90.69 25.37, -225 60 M0 0 C-61.47 14.9, -123.03 32.25, -225 60" stroke="#1e1e1e" stroke-width="2" fill="none"></path></g><g transform="translate(410 91) rotate(0 -112.5 30)"><path d="M-204.59 45.56 C-207.93 49.46, -213.19 52.54, -225 60 M-204.59 45.56 C-210.07 48.62, -216.05 53.77, -225 60" stroke="#1e1e1e" stroke-width="2" fill="none"></path></g><g transform="translate(410 91) rotate(0 -112.5 30)"><path d="M-200.08 62.06 C-204.19 62.66, -210.35 62.45, -225 60 M-200.08 62.06 C-206.65 60.61, -213.85 61.27, -225 60" stroke="#1e1e1e" stroke-width="2" fill="none"></path></g></g><mask></mask><g stroke-linecap="round" transform="translate(250 151) rotate(0 55 30)"><path d="M8 0 C31.94 -0.43, 46.18 0.78, 102 0 C110.09 -2.71, 110.43 6.22, 110 8 C108.03 22.55, 106.64 39.11, 110 52 C107.73 60.64, 109.56 57.97, 102 60 C70.97 59.84, 41.4 58.64, 8 60 C-0.32 57.22, 0.36 59.72, 0 52 C-1.94 38.88, 1.38 33.81, 0 8 C2.2 1.91, 1.94 -0.48, 8 0" stroke="none" stroke-width="0" fill="#F9E4C0"></path><path d="M8 0 C27.66 0.77, 45.28 0.97, 102 0 M8 0 C33.76 -0.41, 58.91 0.8, 102 0 M102 0 C106.04 0.53, 110.88 4.29, 110 8 M102 0 C107.53 0.56, 108.67 4.4, 110 8 M110 8 C111.33 15.82, 110.9 28.37, 110 52 M110 8 C109.2 24.82, 109.95 41.69, 110 52 M110 52 C110.6 55.73, 107.82 58.28, 102 60 M110 52 C108.31 57.4, 108.27 60.81, 102 60 M102 60 C82.78 60.72, 62.48 60.74, 8 60 M102 60 C81.51 61.62, 61.19 60.98, 8 60 M8 60 C0.78 59.71, -0.18 57.86, 0 52 M8 60 C4.5 59.98, 2.16 57.43, 0 52 M0 52 C-1.04 39.1, 0.94 25.23, 0 8 M0 52 C-0.64 40.48, 0.58 27, 0 8 M0 8 C0.44 4.66, 1.12 -1.31, 8 0 M0 8 C-0.62 0.6, 3.68 2.27, 8 0" stroke="#F2CC8F" stroke-width="2" fill="none"></path></g><g transform="translate(258.12255859375 164.9) rotate(0 46.87744140625 16.099999999999994)"><text x="46.87744140625" y="11.830273437499999" font-family="Meiryo, Yu Gothic, Helvetica, sans-serif" font-size="14px" fill="#2E3048" text-anchor="middle" style="white-space: pre;" direction="ltr" dominant-baseline="alphabetic">app/</text><text x="46.87744140625" y="27.9302734375" font-family="Meiryo, Yu Gothic, Helvetica, sans-serif" font-size="14px" fill="#2E3048" text-anchor="middle" style="white-space: pre;" direction="ltr" dominant-baseline="alphabetic">React + Fastify</text></g><g stroke-linecap="round"><g transform="translate(410 91) rotate(0 -52.5 30)"><path d="M0 0 C-20.64 13.18, -42.82 25.38, -105 60 M0 0 C-28.88 15.12, -57.87 32.65, -105 60" stroke="#1e1e1e" stroke-width="2" fill="none"></path></g><g transform="translate(410 91) rotate(0 -52.5 30)"><path d="M-89.01 40.78 C-91.51 45.62, -95.89 49.66, -105 60 M-89.01 40.78 C-93.33 45.16, -98.1 51.6, -105 60" stroke="#1e1e1e" stroke-width="2" fill="none"></path></g><g transform="translate(410 91) rotate(0 -52.5 30)"><path d="M-80.4 55.55 C-84.5 57.46, -90.6 58.54, -105 60 M-80.4 55.55 C-86.93 55.88, -94.05 58.31, -105 60" stroke="#1e1e1e" stroke-width="2" fill="none"></path></g></g><mask></mask><g stroke-linecap="round" transform="translate(370 151) rotate(0 55 30)"><path d="M8 0 C31.94 -0.43, 46.18 0.78, 102 0 C110.09 -2.71, 110.43 6.22, 110 8 C108.03 22.55, 106.64 39.11, 110 52 C107.73 60.64, 109.56 57.97, 102 60 C70.97 59.84, 41.4 58.64, 8 60 C-0.32 57.22, 0.36 59.72, 0 52 C-1.94 38.88, 1.38 33.81, 0 8 C2.2 1.91, 1.94 -0.48, 8 0" stroke="none" stroke-width="0" fill="#A8BFA0"></path><path d="M8 0 C27.66 0.77, 45.28 0.97, 102 0 M8 0 C33.76 -0.41, 58.91 0.8, 102 0 M102 0 C106.04 0.53, 110.88 4.29, 110 8 M102 0 C107.53 0.56, 108.67 4.4, 110 8 M110 8 C111.33 15.82, 110.9 28.37, 110 52 M110 8 C109.2 24.82, 109.95 41.69, 110 52 M110 52 C110.6 55.73, 107.82 58.28, 102 60 M110 52 C108.31 57.4, 108.27 60.81, 102 60 M102 60 C82.78 60.72, 62.48 60.74, 8 60 M102 60 C81.51 61.62, 61.19 60.98, 8 60 M8 60 C0.78 59.71, -0.18 57.86, 0 52 M8 60 C4.5 59.98, 2.16 57.43, 0 52 M0 52 C-1.04 39.1, 0.94 25.23, 0 8 M0 52 C-0.64 40.48, 0.58 27, 0 8 M0 8 C0.44 4.66, 1.12 -1.31, 8 0 M0 8 C-0.62 0.6, 3.68 2.27, 8 0" stroke="#3D5C36" stroke-width="2" fill="none"></path></g><g transform="translate(383 164.9) rotate(0 42 16.099999999999994)"><text x="42" y="11.830273437499999" font-family="Meiryo, Yu Gothic, Helvetica, sans-serif" font-size="14px" fill="#2E3048" text-anchor="middle" style="white-space: pre;" direction="ltr" dominant-baseline="alphabetic">scripts/</text><text x="42" y="27.9302734375" font-family="Meiryo, Yu Gothic, Helvetica, sans-serif" font-size="14px" fill="#2E3048" text-anchor="middle" style="white-space: pre;" direction="ltr" dominant-baseline="alphabetic">ツール・生成</text></g><g stroke-linecap="round"><g transform="translate(410 91) rotate(0 7.5 30)"><path d="M0 0 C3.36 12.93, 5.18 25.13, 15 60 M0 0 C3.76 15.59, 7.41 33.13, 15 60" stroke="#1e1e1e" stroke-width="2" fill="none"></path></g><g transform="translate(410 91) rotate(0 7.5 30)"><path d="M0.64 39.53 C4.2 44.56, 5.9 48.85, 15 60 M0.64 39.53 C4.57 44.37, 8.05 51.16, 15 60" stroke="#1e1e1e" stroke-width="2" fill="none"></path></g><g transform="translate(410 91) rotate(0 7.5 30)"><path d="M17.16 35.09 C17.38 41.04, 15.77 46.22, 15 60 M17.16 35.09 C16.55 41.07, 15.54 49.07, 15 60" stroke="#1e1e1e" stroke-width="2" fill="none"></path></g></g><mask></mask><g stroke-linecap="round" transform="translate(490 151) rotate(0 55 30)"><path d="M8 0 C31.94 -0.43, 46.18 0.78, 102 0 C110.09 -2.71, 110.43 6.22, 110 8 C108.03 22.55, 106.64 39.11, 110 52 C107.73 60.64, 109.56 57.97, 102 60 C70.97 59.84, 41.4 58.64, 8 60 C-0.32 57.22, 0.36 59.72, 0 52 C-1.94 38.88, 1.38 33.81, 0 8 C2.2 1.91, 1.94 -0.48, 8 0" stroke="none" stroke-width="0" fill="#8A8DA0"></path><path d="M8 0 C27.66 0.77, 45.28 0.97, 102 0 M8 0 C33.76 -0.41, 58.91 0.8, 102 0 M102 0 C106.04 0.53, 110.88 4.29, 110 8 M102 0 C107.53 0.56, 108.67 4.4, 110 8 M110 8 C111.33 15.82, 110.9 28.37, 110 52 M110 8 C109.2 24.82, 109.95 41.69, 110 52 M110 52 C110.6 55.73, 107.82 58.28, 102 60 M110 52 C108.31 57.4, 108.27 60.81, 102 60 M102 60 C82.78 60.72, 62.48 60.74, 8 60 M102 60 C81.51 61.62, 61.19 60.98, 8 60 M8 60 C0.78 59.71, -0.18 57.86, 0 52 M8 60 C4.5 59.98, 2.16 57.43, 0 52 M0 52 C-1.04 39.1, 0.94 25.23, 0 8 M0 52 C-0.64 40.48, 0.58 27, 0 8 M0 8 C0.44 4.66, 1.12 -1.31, 8 0 M0 8 C-0.62 0.6, 3.68 2.27, 8 0" stroke="#2E3048" stroke-width="2" fill="none"></path></g><g transform="translate(499.10009765625 164.9) rotate(0 45.89990234375 16.099999999999994)"><text x="45.89990234375" y="11.830273437499999" font-family="Meiryo, Yu Gothic, Helvetica, sans-serif" font-size="14px" fill="#2E3048" text-anchor="middle" style="white-space: pre;" direction="ltr" dominant-baseline="alphabetic">PROCESS.md</text><text x="45.89990234375" y="27.9302734375" font-family="Meiryo, Yu Gothic, Helvetica, sans-serif" font-size="14px" fill="#2E3048" text-anchor="middle" style="white-space: pre;" direction="ltr" dominant-baseline="alphabetic">V-model 定義</text></g><g stroke-linecap="round"><g transform="translate(410 91) rotate(0 67.5 30)"><path d="M0 0 C27.36 12.69, 53.18 24.89, 135 60 M0 0 C36.4 16.07, 72.69 33.61, 135 60" stroke="#1e1e1e" stroke-width="2" fill="none"></path></g><g transform="translate(410 91) rotate(0 67.5 30)"><path d="M110.04 58.5 C115.88 59.72, 119.69 60.22, 135 60 M110.04 58.5 C117.02 58.22, 123.38 59.85, 135 60" stroke="#1e1e1e" stroke-width="2" fill="none"></path></g><g transform="translate(410 91) rotate(0 67.5 30)"><path d="M116.84 42.81 C121.19 47.18, 123.64 50.81, 135 60 M116.84 42.81 C121.83 46.77, 126.34 52.67, 135 60" stroke="#1e1e1e" stroke-width="2" fill="none"></path></g></g><mask></mask><g stroke-linecap="round" transform="translate(610 151) rotate(0 55 30)"><path d="M8 0 C31.94 -0.43, 46.18 0.78, 102 0 C110.09 -2.71, 110.43 6.22, 110 8 C108.03 22.55, 106.64 39.11, 110 52 C107.73 60.64, 109.56 57.97, 102 60 C70.97 59.84, 41.4 58.64, 8 60 C-0.32 57.22, 0.36 59.72, 0 52 C-1.94 38.88, 1.38 33.81, 0 8 C2.2 1.91, 1.94 -0.48, 8 0" stroke="none" stroke-width="0" fill="#8A8DA0"></path><path d="M8 0 C27.66 0.77, 45.28 0.97, 102 0 M8 0 C33.76 -0.41, 58.91 0.8, 102 0 M102 0 C106.04 0.53, 110.88 4.29, 110 8 M102 0 C107.53 0.56, 108.67 4.4, 110 8 M110 8 C111.33 15.82, 110.9 28.37, 110 52 M110 8 C109.2 24.82, 109.95 41.69, 110 52 M110 52 C110.6 55.73, 107.82 58.28, 102 60 M110 52 C108.31 57.4, 108.27 60.81, 102 60 M102 60 C82.78 60.72, 62.48 60.74, 8 60 M102 60 C81.51 61.62, 61.19 60.98, 8 60 M8 60 C0.78 59.71, -0.18 57.86, 0 52 M8 60 C4.5 59.98, 2.16 57.43, 0 52 M0 52 C-1.04 39.1, 0.94 25.23, 0 8 M0 52 C-0.64 40.48, 0.58 27, 0 8 M0 8 C0.44 4.66, 1.12 -1.31, 8 0 M0 8 C-0.62 0.6, 3.68 2.27, 8 0" stroke="#2E3048" stroke-width="2" fill="none"></path></g><g transform="translate(629.20361328125 164.9) rotate(0 35.79638671875 16.099999999999994)"><text x="35.79638671875" y="11.830273437499999" font-family="Meiryo, Yu Gothic, Helvetica, sans-serif" font-size="14px" fill="#2E3048" text-anchor="middle" style="white-space: pre;" direction="ltr" dominant-baseline="alphabetic">project.json</text><text x="35.79638671875" y="27.9302734375" font-family="Meiryo, Yu Gothic, Helvetica, sans-serif" font-size="14px" fill="#2E3048" text-anchor="middle" style="white-space: pre;" direction="ltr" dominant-baseline="alphabetic">SoT</text></g><g stroke-linecap="round"><g transform="translate(410 91) rotate(0 127.5 30)"><path d="M0 0 C51.29 12.36, 101.35 24.52, 255 60 M0 0 C69.1 16.5, 138.12 33.79, 255 60" stroke="#1e1e1e" stroke-width="2" fill="none"></path></g><g transform="translate(410 91) rotate(0 127.5 30)"><path d="M230.19 63.1 C236.04 63.39, 239.82 62.97, 255 60 M230.19 63.1 C237.16 61.57, 243.49 61.94, 255 60" stroke="#1e1e1e" stroke-width="2" fill="none"></path></g><g transform="translate(410 91) rotate(0 127.5 30)"><path d="M234.01 46.43 C238.95 50.06, 241.97 52.98, 255 60 M234.01 46.43 C239.79 49.42, 245.08 54.33, 255 60" stroke="#1e1e1e" stroke-width="2" fill="none"></path></g></g><mask></mask><g stroke-linecap="round" transform="translate(730 151) rotate(0 55 30)"><path d="M8 0 C31.94 -0.43, 46.18 0.78, 102 0 C110.09 -2.71, 110.43 6.22, 110 8 C108.03 22.55, 106.64 39.11, 110 52 C107.73 60.64, 109.56 57.97, 102 60 C70.97 59.84, 41.4 58.64, 8 60 C-0.32 57.22, 0.36 59.72, 0 52 C-1.94 38.88, 1.38 33.81, 0 8 C2.2 1.91, 1.94 -0.48, 8 0" stroke="none" stroke-width="0" fill="#F0AA8F"></path><path d="M8 0 C27.66 0.77, 45.28 0.97, 102 0 M8 0 C33.76 -0.41, 58.91 0.8, 102 0 M102 0 C106.04 0.53, 110.88 4.29, 110 8 M102 0 C107.53 0.56, 108.67 4.4, 110 8 M110 8 C111.33 15.82, 110.9 28.37, 110 52 M110 8 C109.2 24.82, 109.95 41.69, 110 52 M110 52 C110.6 55.73, 107.82 58.28, 102 60 M110 52 C108.31 57.4, 108.27 60.81, 102 60 M102 60 C82.78 60.72, 62.48 60.74, 8 60 M102 60 C81.51 61.62, 61.19 60.98, 8 60 M8 60 C0.78 59.71, -0.18 57.86, 0 52 M8 60 C4.5 59.98, 2.16 57.43, 0 52 M0 52 C-1.04 39.1, 0.94 25.23, 0 8 M0 52 C-0.64 40.48, 0.58 27, 0 8 M0 8 C0.44 4.66, 1.12 -1.31, 8 0 M0 8 C-0.62 0.6, 3.68 2.27, 8 0" stroke="#E07A5F" stroke-width="2" fill="none"></path></g><g transform="translate(736 156.85) rotate(0 49 24.14999999999999)"><text x="49" y="11.830273437499999" font-family="Meiryo, Yu Gothic, Helvetica, sans-serif" font-size="14px" fill="#2E3048" text-anchor="middle" style="white-space: pre;" direction="ltr" dominant-baseline="alphabetic">standard/</text><text x="49" y="27.9302734375" font-family="Meiryo, Yu Gothic, Helvetica, sans-serif" font-size="14px" fill="#2E3048" text-anchor="middle" style="white-space: pre;" direction="ltr" dominant-baseline="alphabetic">規格設定・オー</text><text x="49" y="44.03027343749999" font-family="Meiryo, Yu Gothic, Helvetica, sans-serif" font-size="14px" fill="#2E3048" text-anchor="middle" style="white-space: pre;" direction="ltr" dominant-baseline="alphabetic">バライド</text></g><g stroke-linecap="round"><g transform="translate(410 91) rotate(0 187.5 30)"><path d="M0 0 C75.22 12.12, 149.51 24.24, 375 60 M0 0 C101.8 16.74, 203.55 33.79, 375 60" stroke="#1e1e1e" stroke-width="2" fill="none"></path></g><g transform="translate(410 91) rotate(0 187.5 30)"><path d="M350.47 64.84 C356.28 64.79, 360 64.02, 375 60 M350.47 64.84 C357.38 62.83, 363.63 62.74, 375 60" stroke="#1e1e1e" stroke-width="2" fill="none"></path></g><g transform="translate(410 91) rotate(0 187.5 30)"><path d="M353.1 47.94 C358.24 51.27, 361.44 53.88, 375 60 M353.1 47.94 C359.15 50.52, 364.68 55.02, 375 60" stroke="#1e1e1e" stroke-width="2" fill="none"></path></g></g><mask></mask><g stroke-linecap="round" transform="translate(850 151) rotate(0 55 30)"><path d="M8 0 C31.94 -0.43, 46.18 0.78, 102 0 C110.09 -2.71, 110.43 6.22, 110 8 C108.03 22.55, 106.64 39.11, 110 52 C107.73 60.64, 109.56 57.97, 102 60 C70.97 59.84, 41.4 58.64, 8 60 C-0.32 57.22, 0.36 59.72, 0 52 C-1.94 38.88, 1.38 33.81, 0 8 C2.2 1.91, 1.94 -0.48, 8 0" stroke="none" stroke-width="0" fill="#C8E0D2"></path><path d="M8 0 C27.66 0.77, 45.28 0.97, 102 0 M8 0 C33.76 -0.41, 58.91 0.8, 102 0 M102 0 C106.04 0.53, 110.88 4.29, 110 8 M102 0 C107.53 0.56, 108.67 4.4, 110 8 M110 8 C111.33 15.82, 110.9 28.37, 110 52 M110 8 C109.2 24.82, 109.95 41.69, 110 52 M110 52 C110.6 55.73, 107.82 58.28, 102 60 M110 52 C108.31 57.4, 108.27 60.81, 102 60 M102 60 C82.78 60.72, 62.48 60.74, 8 60 M102 60 C81.51 61.62, 61.19 60.98, 8 60 M8 60 C0.78 59.71, -0.18 57.86, 0 52 M8 60 C4.5 59.98, 2.16 57.43, 0 52 M0 52 C-1.04 39.1, 0.94 25.23, 0 8 M0 52 C-0.64 40.48, 0.58 27, 0 8 M0 8 C0.44 4.66, 1.12 -1.31, 8 0 M0 8 C-0.62 0.6, 3.68 2.27, 8 0" stroke="#4A8C6F" stroke-width="2" fill="none"></path></g><g transform="translate(870 164.9) rotate(0 35 16.099999999999994)"><text x="35" y="11.830273437499999" font-family="Meiryo, Yu Gothic, Helvetica, sans-serif" font-size="14px" fill="#2E3048" text-anchor="middle" style="white-space: pre;" direction="ltr" dominant-baseline="alphabetic">docs/</text><text x="35" y="27.9302734375" font-family="Meiryo, Yu Gothic, Helvetica, sans-serif" font-size="14px" fill="#2E3048" text-anchor="middle" style="white-space: pre;" direction="ltr" dominant-baseline="alphabetic">成果物文書</text></g><g stroke-linecap="round"><g transform="translate(410 91) rotate(0 247.5 30)"><path d="M0 0 C99.15 11.98, 197.68 24.06, 495 60 M0 0 C134.51 16.79, 268.97 33.6, 495 60" stroke="#1e1e1e" stroke-width="2" fill="none"></path></g><g transform="translate(410 91) rotate(0 247.5 30)"><path d="M470.67 65.73 C476.44 65.5, 480.13 64.55, 495 60 M470.67 65.73 C477.53 63.48, 483.72 63.14, 495 60" stroke="#1e1e1e" stroke-width="2" fill="none"></path></g><g transform="translate(410 91) rotate(0 247.5 30)"><path d="M472.67 48.75 C477.9 51.92, 481.19 54.37, 495 60 M472.67 48.75 C478.85 51.11, 484.49 55.39, 495 60" stroke="#1e1e1e" stroke-width="2" fill="none"></path></g></g><mask></mask></svg>