<svg version="1.1" xmlns="http://www.w3.org/2000/svg" viewBox="0 0 720 139" width="720" height="139" class="excalidraw-svg"><!-- svg-source:excalidraw --><metadata></metadata><defs><style class="style-fonts">
      </style></defs><rect x="0" y="0" width="720" height="139" fill="#ffffff"></rect><g stroke-linecap="round" transform="translate(10 10) rotate(0 150 20)"><path d="M8 0 C72.95 -1.68, 130.54 -0.76, 292 0 C300.09 -2.71, 300.43 6.22, 300 8 C298.21 16.05, 296.81 26.1, 300 32 C297.73 40.64, 299.56 37.97, 292 40 C197.12 38.68, 103.35 37.77, 8 40 C-0.32 37.22, 0.36 39.72, 0 32 C-2.06 23.75, 1.25 23.54, 0 8 C2.2 1.91, 1.94 -0.48, 8 0" stroke="none" stroke-width="0" fill="#C8E0D2"></path><path d="M8 0 C65.45 0.3, 121.36 0.45, 292 0 M8 0 C85.4 0.26, 162.32 1.18, 292 0 M292 0 C296.04 0.53, 300.88 4.29, 300 8 M292 0 C297.53 0.56, 298.67 4.4, 300 8 M300 8 C301.43 11.47, 300.99 19.67, 300 32 M300 8 C299.37 17.03, 300.12 26.11, 300 32 M300 32 C300.6 35.73, 297.82 38.28, 292 40 M300 32 C298.31 37.4, 298.27 40.81, 292 40 M292 40 C231.55 41.97, 170.28 41.99, 8 40 M292 40 C230.55 42.56, 169.23 42.07, 8 40 M8 40 C0.78 39.71, -0.18 37.86, 0 32 M8 40 C4.5 39.98, 2.16 37.43, 0 32 M0 32 C-0.89 24.84, 1.09 16.7, 0 8 M0 32 C-0.62 26, 0.59 18.06, 0 8 M0 8 C0.44 4.66, 1.12 -1.31, 8 0 M0 8 C-0.62 0.6, 3.68 2.27, 8 0" stroke="#4A8C6F" stroke-width="2" fill="none"></path></g><g transform="translate(69.80322265625 21.950000000000003) rotate(0 90.19677734375 8.049999999999997)"><text x="90.19677734375" y="11.830273437499999" font-family="Helvetica, sans-serif, Segoe UI Emoji" font-size="14px" fill="#2E3048" text-anchor="middle" style="white-space: pre;" direction="ltr" dominant-baseline="alphabetic">Tier 1: install.sh → ~/.claude/</text></g><g stroke-linecap="round" transform="translate(10 70) rotate(0 50 27.5)"><path d="M8 0 C29.74 -0.33, 41.78 0.88, 92 0 C100.09 -2.71, 100.43 6.22, 100 8 C98.08 20.93, 96.68 35.86, 100 47 C97.73 55.64, 99.56 52.97, 92 55 C64.32 54.93, 38.11 53.73, 8 55 C-0.32 52.22, 0.36 54.72, 0 47 C-1.97 35.1, 1.35 31.24, 0 8 C2.2 1.91, 1.94 -0.48, 8 0" stroke="none" stroke-width="0" fill="#C8E0D2"></path><path d="M8 0 C25.66 0.79, 41.28 0.99, 92 0 M8 0 C31.04 -0.45, 53.47 0.77, 92 0 M92 0 C96.04 0.53, 100.88 4.29, 100 8 M92 0 C97.53 0.56, 98.67 4.4, 100 8 M100 8 C101.36 14.73, 100.92 26.2, 100 47 M100 8 C99.25 22.88, 99.99 37.79, 100 47 M100 47 C100.6 50.73, 97.82 53.28, 92 55 M100 47 C98.31 52.4, 98.27 55.81, 92 55 M92 55 C74.94 55.62, 56.8 55.64, 8 55 M92 55 C73.67 56.53, 55.51 55.89, 8 55 M8 55 C0.78 54.71, -0.18 52.86, 0 47 M8 55 C4.5 54.98, 2.16 52.43, 0 47 M0 47 C-1 35.53, 0.98 23.1, 0 8 M0 47 C-0.64 36.86, 0.58 24.77, 0 8 M0 8 C0.44 4.66, 1.12 -1.31, 8 0 M0 8 C-0.62 0.6, 3.68 2.27, 8 0" stroke="#4A8C6F" stroke-width="2" fill="none"></path></g><g transform="translate(25 81.4) rotate(0 35 16.099999999999994)"><text x="35" y="11.830273437499999" font-family="Helvetica, sans-serif, Segoe UI Emoji" font-size="14px" fill="#2E3048" text-anchor="middle" style="white-space: pre;" direction="ltr" dominant-baseline="alphabetic">汎用スキル</text><text x="35" y="27.9302734375" font-family="Helvetica, sans-serif, Segoe UI Emoji" font-size="14px" fill="#2E3048" text-anchor="middle" style="white-space: pre;" direction="ltr" dominant-baseline="alphabetic">15本</text></g><g stroke-linecap="round"><g transform="translate(160 50) rotate(0 -50 10)"><path d="M0 0 C-19.31 5.17, -40.49 9.37, -100 20 M0 0 C-27.18 4.26, -54.8 10.91, -100 20" stroke="#1e1e1e" stroke-width="2" fill="none"></path></g><g transform="translate(160 50) rotate(0 -50 10)"><path d="M-78.72 6.87 C-82.23 10.5, -87.66 13.33, -100 20 M-78.72 6.87 C-84.43 9.57, -90.64 14.36, -100 20" stroke="#1e1e1e" stroke-width="2" fill="none"></path></g><g transform="translate(160 50) rotate(0 -50 10)"><path d="M-75.26 23.62 C-79.32 23.91, -85.45 23.38, -100 20 M-75.26 23.62 C-81.76 21.75, -88.92 21.98, -100 20" stroke="#1e1e1e" stroke-width="2" fill="none"></path></g></g><mask></mask><g stroke-linecap="round" transform="translate(120 70) rotate(0 50 27.5)"><path d="M8 0 C29.74 -0.33, 41.78 0.88, 92 0 C100.09 -2.71, 100.43 6.22, 100 8 C98.08 20.93, 96.68 35.86, 100 47 C97.73 55.64, 99.56 52.97, 92 55 C64.32 54.93, 38.11 53.73, 8 55 C-0.32 52.22, 0.36 54.72, 0 47 C-1.97 35.1, 1.35 31.24, 0 8 C2.2 1.91, 1.94 -0.48, 8 0" stroke="none" stroke-width="0" fill="#F0AA8F"></path><path d="M8 0 C25.66 0.79, 41.28 0.99, 92 0 M8 0 C31.04 -0.45, 53.47 0.77, 92 0 M92 0 C96.04 0.53, 100.88 4.29, 100 8 M92 0 C97.53 0.56, 98.67 4.4, 100 8 M100 8 C101.36 14.73, 100.92 26.2, 100 47 M100 8 C99.25 22.88, 99.99 37.79, 100 47 M100 47 C100.6 50.73, 97.82 53.28, 92 55 M100 47 C98.31 52.4, 98.27 55.81, 92 55 M92 55 C74.94 55.62, 56.8 55.64, 8 55 M92 55 C73.67 56.53, 55.51 55.89, 8 55 M8 55 C0.78 54.71, -0.18 52.86, 0 47 M8 55 C4.5 54.98, 2.16 52.43, 0 47 M0 47 C-1 35.53, 0.98 23.1, 0 8 M0 47 C-0.64 36.86, 0.58 24.77, 0 8 M0 8 C0.44 4.66, 1.12 -1.31, 8 0 M0 8 C-0.62 0.6, 3.68 2.27, 8 0" stroke="#E07A5F" stroke-width="2" fill="none"></path></g><g transform="translate(128 81.4) rotate(0 42 16.099999999999994)"><text x="42" y="11.830273437499999" font-family="Helvetica, sans-serif, Segoe UI Emoji" font-size="14px" fill="#2E3048" text-anchor="middle" style="white-space: pre;" direction="ltr" dominant-baseline="alphabetic">汎用ナレッジ</text><text x="42" y="27.9302734375" font-family="Helvetica, sans-serif, Segoe UI Emoji" font-size="14px" fill="#2E3048" text-anchor="middle" style="white-space: pre;" direction="ltr" dominant-baseline="alphabetic">7本</text></g><g stroke-linecap="round"><g transform="translate(160 50) rotate(0 5 10)"><path d="M0 0 C2.35 4.47, 3.76 8.57, 10 20 M0 0 C2.73 5.07, 5.24 11.12, 10 20" stroke="#1e1e1e" stroke-width="2" fill="none"></path></g><g transform="translate(160 50) rotate(0 5 10)"><path d="M1.8 12.41 C3.64 14.19, 4.96 15.76, 10 20 M1.8 12.41 C4.05 14.27, 6.16 16.67, 10 20" stroke="#1e1e1e" stroke-width="2" fill="none"></path></g><g transform="translate(160 50) rotate(0 5 10)"><path d="M8.6 8.91 C9.07 11.39, 9.02 13.67, 10 20 M8.6 8.91 C8.99 11.71, 9.25 15.07, 10 20" stroke="#1e1e1e" stroke-width="2" fill="none"></path></g></g><mask></mask><g stroke-linecap="round" transform="translate(230 70) rotate(0 50 27.5)"><path d="M8 0 C29.74 -0.33, 41.78 0.88, 92 0 C100.09 -2.71, 100.43 6.22, 100 8 C98.08 20.93, 96.68 35.86, 100 47 C97.73 55.64, 99.56 52.97, 92 55 C64.32 54.93, 38.11 53.73, 8 55 C-0.32 52.22, 0.36 54.72, 0 47 C-1.97 35.1, 1.35 31.24, 0 8 C2.2 1.91, 1.94 -0.48, 8 0" stroke="none" stroke-width="0" fill="#8A8DA0"></path><path d="M8 0 C25.66 0.79, 41.28 0.99, 92 0 M8 0 C31.04 -0.45, 53.47 0.77, 92 0 M92 0 C96.04 0.53, 100.88 4.29, 100 8 M92 0 C97.53 0.56, 98.67 4.4, 100 8 M100 8 C101.36 14.73, 100.92 26.2, 100 47 M100 8 C99.25 22.88, 99.99 37.79, 100 47 M100 47 C100.6 50.73, 97.82 53.28, 92 55 M100 47 C98.31 52.4, 98.27 55.81, 92 55 M92 55 C74.94 55.62, 56.8 55.64, 8 55 M92 55 C73.67 56.53, 55.51 55.89, 8 55 M8 55 C0.78 54.71, -0.18 52.86, 0 47 M8 55 C4.5 54.98, 2.16 52.43, 0 47 M0 47 C-1 35.53, 0.98 23.1, 0 8 M0 47 C-0.64 36.86, 0.58 24.77, 0 8 M0 8 C0.44 4.66, 1.12 -1.31, 8 0 M0 8 C-0.62 0.6, 3.68 2.27, 8 0" stroke="#2E3048" stroke-width="2" fill="none"></path></g><g transform="translate(241.08984375 81.4) rotate(0 38.91015625 16.099999999999994)"><text x="38.91015625" y="11.830273437499999" font-family="Helvetica, sans-serif, Segoe UI Emoji" font-size="14px" fill="#2E3048" text-anchor="middle" style="white-space: pre;" direction="ltr" dominant-baseline="alphabetic">設定</text><text x="38.91015625" y="27.9302734375" font-family="Helvetica, sans-serif, Segoe UI Emoji" font-size="14px" fill="#2E3048" text-anchor="middle" style="white-space: pre;" direction="ltr" dominant-baseline="alphabetic">settings.json</text></g><g stroke-linecap="round"><g transform="translate(160 50) rotate(0 60 10)"><path d="M0 0 C24.69 4.72, 47.52 8.92, 120 20 M0 0 C32.66 5.13, 64.88 11.79, 120 20" stroke="#1e1e1e" stroke-width="2" fill="none"></path></g><g transform="translate(160 50) rotate(0 60 10)"><path d="M95.46 24.77 C101.26 24.73, 105 23.98, 120 20 M95.46 24.77 C102.37 22.79, 108.62 22.71, 120 20" stroke="#1e1e1e" stroke-width="2" fill="none"></path></g><g transform="translate(160 50) rotate(0 60 10)"><path d="M98.13 7.88 C103.26 11.23, 106.46 13.85, 120 20 M98.13 7.88 C104.17 10.48, 109.7 14.99, 120 20" stroke="#1e1e1e" stroke-width="2" fill="none"></path></g></g><mask></mask><g stroke-linecap="round" transform="translate(410 10) rotate(0 150 20)"><path d="M8 0 C72.95 -1.68, 130.54 -0.76, 292 0 C300.09 -2.71, 300.43 6.22, 300 8 C298.21 16.05, 296.81 26.1, 300 32 C297.73 40.64, 299.56 37.97, 292 40 C197.12 38.68, 103.35 37.77, 8 40 C-0.32 37.22, 0.36 39.72, 0 32 C-2.06 23.75, 1.25 23.54, 0 8 C2.2 1.91, 1.94 -0.48, 8 0" stroke="none" stroke-width="0" fill="#F0AA8F"></path><path d="M8 0 C65.45 0.3, 121.36 0.45, 292 0 M8 0 C85.4 0.26, 162.32 1.18, 292 0 M292 0 C296.04 0.53, 300.88 4.29, 300 8 M292 0 C297.53 0.56, 298.67 4.4, 300 8 M300 8 C301.43 11.47, 300.99 19.67, 300 32 M300 8 C299.37 17.03, 300.12 26.11, 300 32 M300 32 C300.6 35.73, 297.82 38.28, 292 40 M300 32 C298.31 37.4, 298.27 40.81, 292 40 M292 40 C231.55 41.97, 170.28 41.99, 8 40 M292 40 C230.55 42.56, 169.23 42.07, 8 40 M8 40 C0.78 39.71, -0.18 37.86, 0 32 M8 40 C4.5 39.98, 2.16 37.43, 0 32 M0 32 C-0.89 24.84, 1.09 16.7, 0 8 M0 32 C-0.62 26, 0.59 18.06, 0 8 M0 8 C0.44 4.66, 1.12 -1.31, 8 0 M0 8 C-0.62 0.6, 3.68 2.27, 8 0" stroke="#E07A5F" stroke-width="2" fill="none"></path></g><g transform="translate(478.556640625 21.950000000000003) rotate(0 81.443359375 8.049999999999997)"><text x="81.443359375" y="11.830273437499999" font-family="Helvetica, sans-serif, Segoe UI Emoji" font-size="14px" fill="#2E3048" text-anchor="middle" style="white-space: pre;" direction="ltr" dominant-baseline="alphabetic">Tier 2: /repo-manage sync</text></g><g stroke-linecap="round" transform="translate(420 70) rotate(0 60 27.5)"><path d="M8 0 C34.14 -0.52, 50.58 0.69, 112 0 C120.09 -2.71, 120.43 6.22, 120 8 C118.08 20.93, 116.68 35.86, 120 47 C117.73 55.64, 119.56 52.97, 112 55 C77.61 54.76, 44.69 53.56, 8 55 C-0.32 52.22, 0.36 54.72, 0 47 C-1.97 35.1, 1.35 31.24, 0 8 C2.2 1.91, 1.94 -0.48, 8 0" stroke="none" stroke-width="0" fill="#F0AA8F"></path><path d="M8 0 C29.66 0.75, 49.28 0.95, 112 0 M8 0 C36.48 -0.37, 64.35 0.84, 112 0 M112 0 C116.04 0.53, 120.88 4.29, 120 8 M112 0 C117.53 0.56, 118.67 4.4, 120 8 M120 8 C121.36 14.73, 120.92 26.2, 120 47 M120 8 C119.25 22.88, 119.99 37.79, 120 47 M120 47 C120.6 50.73, 117.82 53.28, 112 55 M120 47 C118.31 52.4, 118.27 55.81, 112 55 M112 55 C90.62 55.82, 68.17 55.84, 8 55 M112 55 C89.35 56.71, 66.87 56.07, 8 55 M8 55 C0.78 54.71, -0.18 52.86, 0 47 M8 55 C4.5 54.98, 2.16 52.43, 0 47 M0 47 C-1 35.53, 0.98 23.1, 0 8 M0 47 C-0.64 36.86, 0.58 24.77, 0 8 M0 8 C0.44 4.66, 1.12 -1.31, 8 0 M0 8 C-0.62 0.6, 3.68 2.27, 8 0" stroke="#E07A5F" stroke-width="2" fill="none"></path></g><g transform="translate(431 81.4) rotate(0 49 16.099999999999994)"><text x="49" y="11.830273437499999" font-family="Helvetica, sans-serif, Segoe UI Emoji" font-size="14px" fill="#2E3048" text-anchor="middle" style="white-space: pre;" direction="ltr" dominant-baseline="alphabetic">ドメインスキル</text><text x="49" y="27.9302734375" font-family="Helvetica, sans-serif, Segoe UI Emoji" font-size="14px" fill="#2E3048" text-anchor="middle" style="white-space: pre;" direction="ltr" dominant-baseline="alphabetic">26本</text></g><g stroke-linecap="round"><g transform="translate(560 50) rotate(0 -40 10)"><path d="M0 0 C-15.31 5.13, -32.49 9.33, -80 20 M0 0 C-21.74 4.34, -43.92 10.99, -80 20" stroke="#1e1e1e" stroke-width="2" fill="none"></path></g><g transform="translate(560 50) rotate(0 -40 10)"><path d="M-59.37 5.87 C-62.76 9.7, -68.06 12.73, -80 20 M-59.37 5.87 C-64.91 8.85, -70.94 13.91, -80 20" stroke="#1e1e1e" stroke-width="2" fill="none"></path></g><g transform="translate(560 50) rotate(0 -40 10)"><path d="M-55.12 22.44 C-59.22 22.96, -65.37 22.67, -80 20 M-55.12 22.44 C-61.67 20.89, -68.86 21.44, -80 20" stroke="#1e1e1e" stroke-width="2" fill="none"></path></g></g><mask></mask><g stroke-linecap="round" transform="translate(560 70) rotate(0 68.25574537722764 29.5)"><path d="M8 0 C37.77 -0.68, 57.84 0.53, 128.51 0 C136.6 -2.71, 136.94 6.22, 136.51 8 C134.55 22.23, 133.16 38.46, 136.51 51 C134.25 59.64, 136.07 56.97, 128.51 59 C88.59 58.62, 50.12 57.42, 8 59 C-0.32 56.22, 0.36 58.72, 0 51 C-1.94 38.13, 1.37 33.29, 0 8 C2.2 1.91, 1.94 -0.48, 8 0" stroke="none" stroke-width="0" fill="#F0AA8F"></path><path d="M8 0 C32.96 0.72, 55.89 0.92, 128.51 0 M8 0 C40.97 -0.31, 73.33 0.91, 128.51 0 M128.51 0 C132.55 0.53, 137.39 4.29, 136.51 8 M128.51 0 C134.04 0.56, 135.18 4.4, 136.51 8 M136.51 8 C137.85 15.6, 137.41 27.94, 136.51 51 M136.51 8 C135.72 24.43, 136.47 40.91, 136.51 51 M136.51 51 C137.11 54.73, 134.33 57.28, 128.51 59 M136.51 51 C134.82 56.4, 134.78 59.81, 128.51 59 M128.51 59 C103.57 59.98, 77.56 60, 8 59 M128.51 59 C102.3 60.87, 76.26 60.22, 8 59 M8 59 C0.78 58.71, -0.18 56.86, 0 51 M8 59 C4.5 58.98, 2.16 56.43, 0 51 M0 51 C-1.03 38.39, 0.95 24.81, 0 8 M0 51 C-0.64 39.75, 0.58 26.56, 0 8 M0 8 C0.44 4.66, 1.12 -1.31, 8 0 M0 8 C-0.62 0.6, 3.68 2.27, 8 0" stroke="#E07A5F" stroke-width="2" fill="none"></path></g><g transform="translate(572.2557453772276 83.4) rotate(0 56 16.099999999999994)"><text x="56" y="11.830273437499999" font-family="Helvetica, sans-serif, Segoe UI Emoji" font-size="14px" fill="#2E3048" text-anchor="middle" style="white-space: pre;" direction="ltr" dominant-baseline="alphabetic">ドメインナレッジ</text><text x="56" y="27.9302734375" font-family="Helvetica, sans-serif, Segoe UI Emoji" font-size="14px" fill="#2E3048" text-anchor="middle" style="white-space: pre;" direction="ltr" dominant-baseline="alphabetic">9本</text></g><g stroke-linecap="round"><g transform="translate(560 50) rotate(0 25 10)"><path d="M0 0 C10.69 4.86, 19.51 9.06, 50 20 M0 0 C13.62 4.85, 26.8 11.51, 50 20" stroke="#1e1e1e" stroke-width="2" fill="none"></path></g><g transform="translate(560 50) rotate(0 25 10)"><path d="M25.01 19.49 C30.86 20.51, 34.68 20.81, 50 20 M25.01 19.49 C32 18.94, 38.37 20.3, 50 20" stroke="#1e1e1e" stroke-width="2" fill="none"></path></g><g transform="translate(560 50) rotate(0 25 10)"><path d="M31.18 3.54 C35.67 7.76, 38.25 11.25, 50 20 M31.18 3.54 C36.35 7.31, 41.05 13, 50 20" stroke="#1e1e1e" stroke-width="2" fill="none"></path></g></g><mask></mask></svg>