<svg version="1.1" xmlns="http://www.w3.org/2000/svg" viewBox="0 0 620 410" width="620" height="410" class="excalidraw-svg"><!-- svg-source:excalidraw --><metadata></metadata><defs><style class="style-fonts">
      </style></defs><rect x="0" y="0" width="620" height="410" fill="#ffffff"></rect><g stroke-linecap="round" transform="translate(10 10) rotate(0 300 15)"><path d="M7.5 0 C137.49 -2.02, 263.61 -1.54, 592.5 0 C600.26 -2.71, 600.43 6.06, 600 7.5 C598.68 12.56, 597.63 19.12, 600 22.5 C597.73 30.81, 599.72 27.97, 592.5 30 C396.48 28.31, 201.04 27.83, 7.5 30 C-0.48 27.22, 0.36 29.89, 0 22.5 C-1.57 17.04, 0.92 17.61, 0 7.5 C2.2 1.74, 1.77 -0.48, 7.5 0" stroke="none" stroke-width="0" fill="#F0AA8F"></path><path d="M7.5 0 C124.85 -0.09, 241.38 -0.01, 592.5 0 M7.5 0 C166.69 0.61, 325.64 1.1, 592.5 0 M592.5 0 C596.2 0.53, 600.88 4.13, 600 7.5 M592.5 0 C597.7 0.56, 598.67 4.23, 600 7.5 M600 7.5 C601.08 9.45, 600.75 14.95, 600 22.5 M600 7.5 C599.55 13.11, 600.11 18.74, 600 22.5 M600 22.5 C600.6 25.9, 597.98 28.28, 592.5 30 M600 22.5 C598.31 27.56, 598.44 30.81, 592.5 30 M592.5 30 C466.75 32.23, 340.58 32.24, 7.5 30 M592.5 30 C466.16 32.45, 339.9 32.19, 7.5 30 M7.5 30 C0.61 29.71, -0.18 28.03, 0 22.5 M7.5 30 C4.33 29.98, 2.16 27.6, 0 22.5 M0 22.5 C-0.65 17.99, 0.84 12.75, 0 7.5 M0 22.5 C-0.47 18.83, 0.45 13.7, 0 7.5 M0 7.5 C0.44 4.5, 0.95 -1.31, 7.5 0 M0 7.5 C-0.62 0.43, 3.51 2.27, 7.5 0" stroke="#E07A5F" stroke-width="2" fill="none"></path></g><g transform="translate(220.15185546875 16.950000000000003) rotate(0 89.84814453125 8.049999999999997)"><text x="89.84814453125" y="11.830273437499999" font-family="Helvetica, sans-serif, Segoe UI Emoji" font-size="14px" fill="#2E3048" text-anchor="middle" style="white-space: pre;" direction="ltr" dominant-baseline="alphabetic">Session スコープ（揮発性）</text></g><g stroke-linecap="round" transform="translate(20 50) rotate(0 90 35)"><path d="M8 0 C47.34 -1.09, 76.98 0.12, 172 0 C180.09 -2.71, 180.43 6.22, 180 8 C177.95 25.81, 176.55 45.62, 180 62 C177.73 70.64, 179.56 67.97, 172 70 C117.49 69.26, 64.44 68.06, 8 70 C-0.32 67.22, 0.36 69.72, 0 62 C-1.88 46.45, 1.44 38.94, 0 8 C2.2 1.91, 1.94 -0.48, 8 0" stroke="none" stroke-width="0" fill="#F0AA8F"></path><path d="M8 0 C41.66 0.63, 73.28 0.83, 172 0 M8 0 C52.8 -0.14, 96.99 1.08, 172 0 M172 0 C176.04 0.53, 180.88 4.29, 180 8 M172 0 C177.53 0.56, 178.67 4.4, 180 8 M180 8 C181.29 18, 180.85 32.72, 180 62 M180 8 C179.12 28.72, 179.87 49.48, 180 62 M180 62 C180.6 65.73, 177.82 68.28, 172 70 M180 62 C178.31 67.4, 178.27 70.81, 172 70 M172 70 C137.68 71.41, 102.29 71.43, 8 70 M172 70 C136.4 72.27, 100.97 71.62, 8 70 M8 70 C0.78 69.71, -0.18 67.86, 0 62 M8 70 C4.5 69.98, 2.16 67.43, 0 62 M0 62 C-1.11 46.23, 0.87 29.5, 0 8 M0 62 C-0.65 47.71, 0.57 31.47, 0 8 M0 8 C0.44 4.66, 1.12 -1.31, 8 0 M0 8 C-0.62 0.6, 3.68 2.27, 8 0" stroke="#E07A5F" stroke-width="2" fill="none"></path></g><g transform="translate(40.3759765625 60.849999999999994) rotate(0 69.6240234375 24.15)"><text x="69.6240234375" y="11.830273437499999" font-family="Helvetica, sans-serif, Segoe UI Emoji" font-size="14px" fill="#2E3048" text-anchor="middle" style="white-space: pre;" direction="ltr" dominant-baseline="alphabetic">Auto Memory</text><text x="69.6240234375" y="27.9302734375" font-family="Helvetica, sans-serif, Segoe UI Emoji" font-size="14px" fill="#2E3048" text-anchor="middle" style="white-space: pre;" direction="ltr" dominant-baseline="alphabetic">MEMORY.md</text><text x="69.6240234375" y="44.03027343749999" font-family="Helvetica, sans-serif, Segoe UI Emoji" font-size="14px" fill="#2E3048" text-anchor="middle" style="white-space: pre;" direction="ltr" dominant-baseline="alphabetic">自動ロード 200行上限</text></g><g stroke-linecap="round" transform="translate(220 50) rotate(0 90 35)"><path d="M8 0 C47.34 -1.09, 76.98 0.12, 172 0 C180.09 -2.71, 180.43 6.22, 180 8 C177.95 25.81, 176.55 45.62, 180 62 C177.73 70.64, 179.56 67.97, 172 70 C117.49 69.26, 64.44 68.06, 8 70 C-0.32 67.22, 0.36 69.72, 0 62 C-1.88 46.45, 1.44 38.94, 0 8 C2.2 1.91, 1.94 -0.48, 8 0" stroke="none" stroke-width="0" fill="#F0AA8F"></path><path d="M8 0 C41.66 0.63, 73.28 0.83, 172 0 M8 0 C52.8 -0.14, 96.99 1.08, 172 0 M172 0 C176.04 0.53, 180.88 4.29, 180 8 M172 0 C177.53 0.56, 178.67 4.4, 180 8 M180 8 C181.29 18, 180.85 32.72, 180 62 M180 8 C179.12 28.72, 179.87 49.48, 180 62 M180 62 C180.6 65.73, 177.82 68.28, 172 70 M180 62 C178.31 67.4, 178.27 70.81, 172 70 M172 70 C137.68 71.41, 102.29 71.43, 8 70 M172 70 C136.4 72.27, 100.97 71.62, 8 70 M8 70 C0.78 69.71, -0.18 67.86, 0 62 M8 70 C4.5 69.98, 2.16 67.43, 0 62 M0 62 C-1.11 46.23, 0.87 29.5, 0 8 M0 62 C-0.65 47.71, 0.57 31.47, 0 8 M0 8 C0.44 4.66, 1.12 -1.31, 8 0 M0 8 C-0.62 0.6, 3.68 2.27, 8 0" stroke="#E07A5F" stroke-width="2" fill="none"></path></g><g transform="translate(240.751953125 60.849999999999994) rotate(0 69.248046875 24.15)"><text x="69.248046875" y="11.830273437499999" font-family="Helvetica, sans-serif, Segoe UI Emoji" font-size="14px" fill="#2E3048" text-anchor="middle" style="white-space: pre;" direction="ltr" dominant-baseline="alphabetic">Session State</text><text x="69.248046875" y="27.9302734375" font-family="Helvetica, sans-serif, Segoe UI Emoji" font-size="14px" fill="#2E3048" text-anchor="middle" style="white-space: pre;" direction="ltr" dominant-baseline="alphabetic">session_state.md</text><text x="69.248046875" y="44.03027343749999" font-family="Helvetica, sans-serif, Segoe UI Emoji" font-size="14px" fill="#2E3048" text-anchor="middle" style="white-space: pre;" direction="ltr" dominant-baseline="alphabetic">/session end で上書き</text></g><g stroke-linecap="round" transform="translate(10 150) rotate(0 300 15)"><path d="M7.5 0 C137.49 -2.02, 263.61 -1.54, 592.5 0 C600.26 -2.71, 600.43 6.06, 600 7.5 C598.68 12.56, 597.63 19.12, 600 22.5 C597.73 30.81, 599.72 27.97, 592.5 30 C396.48 28.31, 201.04 27.83, 7.5 30 C-0.48 27.22, 0.36 29.89, 0 22.5 C-1.57 17.04, 0.92 17.61, 0 7.5 C2.2 1.74, 1.77 -0.48, 7.5 0" stroke="none" stroke-width="0" fill="#C8E0D2"></path><path d="M7.5 0 C124.85 -0.09, 241.38 -0.01, 592.5 0 M7.5 0 C166.69 0.61, 325.64 1.1, 592.5 0 M592.5 0 C596.2 0.53, 600.88 4.13, 600 7.5 M592.5 0 C597.7 0.56, 598.67 4.23, 600 7.5 M600 7.5 C601.08 9.45, 600.75 14.95, 600 22.5 M600 7.5 C599.55 13.11, 600.11 18.74, 600 22.5 M600 22.5 C600.6 25.9, 597.98 28.28, 592.5 30 M600 22.5 C598.31 27.56, 598.44 30.81, 592.5 30 M592.5 30 C466.75 32.23, 340.58 32.24, 7.5 30 M592.5 30 C466.16 32.45, 339.9 32.19, 7.5 30 M7.5 30 C0.61 29.71, -0.18 28.03, 0 22.5 M7.5 30 C4.33 29.98, 2.16 27.6, 0 22.5 M0 22.5 C-0.65 17.99, 0.84 12.75, 0 7.5 M0 22.5 C-0.47 18.83, 0.45 13.7, 0 7.5 M0 7.5 C0.44 4.5, 0.95 -1.31, 7.5 0 M0 7.5 C-0.62 0.43, 3.51 2.27, 7.5 0" stroke="#4A8C6F" stroke-width="2" fill="none"></path></g><g transform="translate(219.37939453125 156.95) rotate(0 90.62060546875 8.049999999999997)"><text x="90.62060546875" y="11.830273437499999" font-family="Helvetica, sans-serif, Segoe UI Emoji" font-size="14px" fill="#2E3048" text-anchor="middle" style="white-space: pre;" direction="ltr" dominant-baseline="alphabetic">Project スコープ（Git 永続）</text></g><g stroke-linecap="round" transform="translate(20 190) rotate(0 90 35)"><path d="M8 0 C47.34 -1.09, 76.98 0.12, 172 0 C180.09 -2.71, 180.43 6.22, 180 8 C177.95 25.81, 176.55 45.62, 180 62 C177.73 70.64, 179.56 67.97, 172 70 C117.49 69.26, 64.44 68.06, 8 70 C-0.32 67.22, 0.36 69.72, 0 62 C-1.88 46.45, 1.44 38.94, 0 8 C2.2 1.91, 1.94 -0.48, 8 0" stroke="none" stroke-width="0" fill="#C8E0D2"></path><path d="M8 0 C41.66 0.63, 73.28 0.83, 172 0 M8 0 C52.8 -0.14, 96.99 1.08, 172 0 M172 0 C176.04 0.53, 180.88 4.29, 180 8 M172 0 C177.53 0.56, 178.67 4.4, 180 8 M180 8 C181.29 18, 180.85 32.72, 180 62 M180 8 C179.12 28.72, 179.87 49.48, 180 62 M180 62 C180.6 65.73, 177.82 68.28, 172 70 M180 62 C178.31 67.4, 178.27 70.81, 172 70 M172 70 C137.68 71.41, 102.29 71.43, 8 70 M172 70 C136.4 72.27, 100.97 71.62, 8 70 M8 70 C0.78 69.71, -0.18 67.86, 0 62 M8 70 C4.5 69.98, 2.16 67.43, 0 62 M0 62 C-1.11 46.23, 0.87 29.5, 0 8 M0 62 C-0.65 47.71, 0.57 31.47, 0 8 M0 8 C0.44 4.66, 1.12 -1.31, 8 0 M0 8 C-0.62 0.6, 3.68 2.27, 8 0" stroke="#4A8C6F" stroke-width="2" fill="none"></path></g><g transform="translate(35.67626953125 200.85) rotate(0 74.32373046875 24.14999999999999)"><text x="74.32373046875" y="11.830273437499999" font-family="Helvetica, sans-serif, Segoe UI Emoji" font-size="14px" fill="#2E3048" text-anchor="middle" style="white-space: pre;" direction="ltr" dominant-baseline="alphabetic">Project Knowledge</text><text x="74.32373046875" y="27.9302734375" font-family="Helvetica, sans-serif, Segoe UI Emoji" font-size="14px" fill="#2E3048" text-anchor="middle" style="white-space: pre;" direction="ltr" dominant-baseline="alphabetic">.claude/knowledge/*.md</text><text x="74.32373046875" y="44.03027343749999" font-family="Helvetica, sans-serif, Segoe UI Emoji" font-size="14px" fill="#2E3048" text-anchor="middle" style="white-space: pre;" direction="ltr" dominant-baseline="alphabetic">ドメイン知識</text></g><g stroke-linecap="round" transform="translate(220 190) rotate(0 90 35)"><path d="M8 0 C47.34 -1.09, 76.98 0.12, 172 0 C180.09 -2.71, 180.43 6.22, 180 8 C177.95 25.81, 176.55 45.62, 180 62 C177.73 70.64, 179.56 67.97, 172 70 C117.49 69.26, 64.44 68.06, 8 70 C-0.32 67.22, 0.36 69.72, 0 62 C-1.88 46.45, 1.44 38.94, 0 8 C2.2 1.91, 1.94 -0.48, 8 0" stroke="none" stroke-width="0" fill="#C8E0D2"></path><path d="M8 0 C41.66 0.63, 73.28 0.83, 172 0 M8 0 C52.8 -0.14, 96.99 1.08, 172 0 M172 0 C176.04 0.53, 180.88 4.29, 180 8 M172 0 C177.53 0.56, 178.67 4.4, 180 8 M180 8 C181.29 18, 180.85 32.72, 180 62 M180 8 C179.12 28.72, 179.87 49.48, 180 62 M180 62 C180.6 65.73, 177.82 68.28, 172 70 M180 62 C178.31 67.4, 178.27 70.81, 172 70 M172 70 C137.68 71.41, 102.29 71.43, 8 70 M172 70 C136.4 72.27, 100.97 71.62, 8 70 M8 70 C0.78 69.71, -0.18 67.86, 0 62 M8 70 C4.5 69.98, 2.16 67.43, 0 62 M0 62 C-1.11 46.23, 0.87 29.5, 0 8 M0 62 C-0.65 47.71, 0.57 31.47, 0 8 M0 8 C0.44 4.66, 1.12 -1.31, 8 0 M0 8 C-0.62 0.6, 3.68 2.27, 8 0" stroke="#4A8C6F" stroke-width="2" fill="none"></path></g><g transform="translate(241.91748046875 200.85) rotate(0 68.08251953125 24.14999999999999)"><text x="68.08251953125" y="11.830273437499999" font-family="Helvetica, sans-serif, Segoe UI Emoji" font-size="14px" fill="#2E3048" text-anchor="middle" style="white-space: pre;" direction="ltr" dominant-baseline="alphabetic">Process Records</text><text x="68.08251953125" y="27.9302734375" font-family="Helvetica, sans-serif, Segoe UI Emoji" font-size="14px" fill="#2E3048" text-anchor="middle" style="white-space: pre;" direction="ltr" dominant-baseline="alphabetic">process_records/*.md</text><text x="68.08251953125" y="44.03027343749999" font-family="Helvetica, sans-serif, Segoe UI Emoji" font-size="14px" fill="#2E3048" text-anchor="middle" style="white-space: pre;" direction="ltr" dominant-baseline="alphabetic">SPICE エビデンス</text></g><g stroke-linecap="round" transform="translate(420 190) rotate(0 90 35)"><path d="M8 0 C47.34 -1.09, 76.98 0.12, 172 0 C180.09 -2.71, 180.43 6.22, 180 8 C177.95 25.81, 176.55 45.62, 180 62 C177.73 70.64, 179.56 67.97, 172 70 C117.49 69.26, 64.44 68.06, 8 70 C-0.32 67.22, 0.36 69.72, 0 62 C-1.88 46.45, 1.44 38.94, 0 8 C2.2 1.91, 1.94 -0.48, 8 0" stroke="none" stroke-width="0" fill="#C8E0D2"></path><path d="M8 0 C41.66 0.63, 73.28 0.83, 172 0 M8 0 C52.8 -0.14, 96.99 1.08, 172 0 M172 0 C176.04 0.53, 180.88 4.29, 180 8 M172 0 C177.53 0.56, 178.67 4.4, 180 8 M180 8 C181.29 18, 180.85 32.72, 180 62 M180 8 C179.12 28.72, 179.87 49.48, 180 62 M180 62 C180.6 65.73, 177.82 68.28, 172 70 M180 62 C178.31 67.4, 178.27 70.81, 172 70 M172 70 C137.68 71.41, 102.29 71.43, 8 70 M172 70 C136.4 72.27, 100.97 71.62, 8 70 M8 70 C0.78 69.71, -0.18 67.86, 0 62 M8 70 C4.5 69.98, 2.16 67.43, 0 62 M0 62 C-1.11 46.23, 0.87 29.5, 0 8 M0 62 C-0.65 47.71, 0.57 31.47, 0 8 M0 8 C0.44 4.66, 1.12 -1.31, 8 0 M0 8 C-0.62 0.6, 3.68 2.27, 8 0" stroke="#4A8C6F" stroke-width="2" fill="none"></path></g><g transform="translate(440 200.85) rotate(0 70 24.14999999999999)"><text x="70" y="11.830273437499999" font-family="Helvetica, sans-serif, Segoe UI Emoji" font-size="14px" fill="#2E3048" text-anchor="middle" style="white-space: pre;" direction="ltr" dominant-baseline="alphabetic">project.json</text><text x="70" y="27.9302734375" font-family="Helvetica, sans-serif, Segoe UI Emoji" font-size="14px" fill="#2E3048" text-anchor="middle" style="white-space: pre;" direction="ltr" dominant-baseline="alphabetic">SoT</text><text x="70" y="44.03027343749999" font-family="Helvetica, sans-serif, Segoe UI Emoji" font-size="14px" fill="#2E3048" text-anchor="middle" style="white-space: pre;" direction="ltr" dominant-baseline="alphabetic">構成・進捗・変更ログ</text></g><g stroke-linecap="round" transform="translate(10 290) rotate(0 300 15)"><path d="M7.5 0 C137.49 -2.02, 263.61 -1.54, 592.5 0 C600.26 -2.71, 600.43 6.06, 600 7.5 C598.68 12.56, 597.63 19.12, 600 22.5 C597.73 30.81, 599.72 27.97, 592.5 30 C396.48 28.31, 201.04 27.83, 7.5 30 C-0.48 27.22, 0.36 29.89, 0 22.5 C-1.57 17.04, 0.92 17.61, 0 7.5 C2.2 1.74, 1.77 -0.48, 7.5 0" stroke="none" stroke-width="0" fill="#F9E4C0"></path><path d="M7.5 0 C124.85 -0.09, 241.38 -0.01, 592.5 0 M7.5 0 C166.69 0.61, 325.64 1.1, 592.5 0 M592.5 0 C596.2 0.53, 600.88 4.13, 600 7.5 M592.5 0 C597.7 0.56, 598.67 4.23, 600 7.5 M600 7.5 C601.08 9.45, 600.75 14.95, 600 22.5 M600 7.5 C599.55 13.11, 600.11 18.74, 600 22.5 M600 22.5 C600.6 25.9, 597.98 28.28, 592.5 30 M600 22.5 C598.31 27.56, 598.44 30.81, 592.5 30 M592.5 30 C466.75 32.23, 340.58 32.24, 7.5 30 M592.5 30 C466.16 32.45, 339.9 32.19, 7.5 30 M7.5 30 C0.61 29.71, -0.18 28.03, 0 22.5 M7.5 30 C4.33 29.98, 2.16 27.6, 0 22.5 M0 22.5 C-0.65 17.99, 0.84 12.75, 0 7.5 M0 22.5 C-0.47 18.83, 0.45 13.7, 0 7.5 M0 7.5 C0.44 4.5, 0.95 -1.31, 7.5 0 M0 7.5 C-0.62 0.43, 3.51 2.27, 7.5 0" stroke="#F2CC8F" stroke-width="2" fill="none"></path></g><g transform="translate(231.82080078125 296.95) rotate(0 78.17919921875 8.050000000000011)"><text x="78.17919921875" y="11.830273437499999" font-family="Helvetica, sans-serif, Segoe UI Emoji" font-size="14px" fill="#2E3048" text-anchor="middle" style="white-space: pre;" direction="ltr" dominant-baseline="alphabetic">Global スコープ（永続）</text></g><g stroke-linecap="round" transform="translate(20 330) rotate(0 90 35)"><path d="M8 0 C47.34 -1.09, 76.98 0.12, 172 0 C180.09 -2.71, 180.43 6.22, 180 8 C177.95 25.81, 176.55 45.62, 180 62 C177.73 70.64, 179.56 67.97, 172 70 C117.49 69.26, 64.44 68.06, 8 70 C-0.32 67.22, 0.36 69.72, 0 62 C-1.88 46.45, 1.44 38.94, 0 8 C2.2 1.91, 1.94 -0.48, 8 0" stroke="none" stroke-width="0" fill="#F9E4C0"></path><path d="M8 0 C41.66 0.63, 73.28 0.83, 172 0 M8 0 C52.8 -0.14, 96.99 1.08, 172 0 M172 0 C176.04 0.53, 180.88 4.29, 180 8 M172 0 C177.53 0.56, 178.67 4.4, 180 8 M180 8 C181.29 18, 180.85 32.72, 180 62 M180 8 C179.12 28.72, 179.87 49.48, 180 62 M180 62 C180.6 65.73, 177.82 68.28, 172 70 M180 62 C178.31 67.4, 178.27 70.81, 172 70 M172 70 C137.68 71.41, 102.29 71.43, 8 70 M172 70 C136.4 72.27, 100.97 71.62, 8 70 M8 70 C0.78 69.71, -0.18 67.86, 0 62 M8 70 C4.5 69.98, 2.16 67.43, 0 62 M0 62 C-1.11 46.23, 0.87 29.5, 0 8 M0 62 C-0.65 47.71, 0.57 31.47, 0 8 M0 8 C0.44 4.66, 1.12 -1.31, 8 0 M0 8 C-0.62 0.6, 3.68 2.27, 8 0" stroke="#F2CC8F" stroke-width="2" fill="none"></path></g><g transform="translate(47.8818359375 340.85) rotate(0 62.1181640625 24.150000000000006)"><text x="62.1181640625" y="11.830273437499999" font-family="Helvetica, sans-serif, Segoe UI Emoji" font-size="14px" fill="#2E3048" text-anchor="middle" style="white-space: pre;" direction="ltr" dominant-baseline="alphabetic">Project Registry</text><text x="62.1181640625" y="27.9302734375" font-family="Helvetica, sans-serif, Segoe UI Emoji" font-size="14px" fill="#2E3048" text-anchor="middle" style="white-space: pre;" direction="ltr" dominant-baseline="alphabetic">project_registry.json</text><text x="62.1181640625" y="44.03027343749999" font-family="Helvetica, sans-serif, Segoe UI Emoji" font-size="14px" fill="#2E3048" text-anchor="middle" style="white-space: pre;" direction="ltr" dominant-baseline="alphabetic">PJ 一覧</text></g><g stroke-linecap="round" transform="translate(220 330) rotate(0 90 35)"><path d="M8 0 C47.34 -1.09, 76.98 0.12, 172 0 C180.09 -2.71, 180.43 6.22, 180 8 C177.95 25.81, 176.55 45.62, 180 62 C177.73 70.64, 179.56 67.97, 172 70 C117.49 69.26, 64.44 68.06, 8 70 C-0.32 67.22, 0.36 69.72, 0 62 C-1.88 46.45, 1.44 38.94, 0 8 C2.2 1.91, 1.94 -0.48, 8 0" stroke="none" stroke-width="0" fill="#F9E4C0"></path><path d="M8 0 C41.66 0.63, 73.28 0.83, 172 0 M8 0 C52.8 -0.14, 96.99 1.08, 172 0 M172 0 C176.04 0.53, 180.88 4.29, 180 8 M172 0 C177.53 0.56, 178.67 4.4, 180 8 M180 8 C181.29 18, 180.85 32.72, 180 62 M180 8 C179.12 28.72, 179.87 49.48, 180 62 M180 62 C180.6 65.73, 177.82 68.28, 172 70 M180 62 C178.31 67.4, 178.27 70.81, 172 70 M172 70 C137.68 71.41, 102.29 71.43, 8 70 M172 70 C136.4 72.27, 100.97 71.62, 8 70 M8 70 C0.78 69.71, -0.18 67.86, 0 62 M8 70 C4.5 69.98, 2.16 67.43, 0 62 M0 62 C-1.11 46.23, 0.87 29.5, 0 8 M0 62 C-0.65 47.71, 0.57 31.47, 0 8 M0 8 C0.44 4.66, 1.12 -1.31, 8 0 M0 8 C-0.62 0.6, 3.68 2.27, 8 0" stroke="#F2CC8F" stroke-width="2" fill="none"></path></g><g transform="translate(225.5830078125 340.85) rotate(0 84.4169921875 24.150000000000006)"><text x="84.4169921875" y="11.830273437499999" font-family="Helvetica, sans-serif, Segoe UI Emoji" font-size="14px" fill="#2E3048" text-anchor="middle" style="white-space: pre;" direction="ltr" dominant-baseline="alphabetic">Skill Manifest</text><text x="84.4169921875" y="27.9302734375" font-family="Helvetica, sans-serif, Segoe UI Emoji" font-size="14px" fill="#2E3048" text-anchor="middle" style="white-space: pre;" direction="ltr" dominant-baseline="alphabetic">.shared-skills-manifest.json</text><text x="84.4169921875" y="44.03027343749999" font-family="Helvetica, sans-serif, Segoe UI Emoji" font-size="14px" fill="#2E3048" text-anchor="middle" style="white-space: pre;" direction="ltr" dominant-baseline="alphabetic">配布履歴</text></g></svg>