<svg xmlns="http://www.w3.org/2000/svg" viewBox="0 0 610 580" width="610" height="580">
<rect width="610" height="580" fill="#ffffff"/>
<defs><marker id="arrowhead" markerWidth="10" markerHeight="7" refX="10" refY="3.5" orient="auto"><polygon points="0 0, 10 3.5, 0 7" fill="#1e1e1e"/></marker></defs>
<rect x="20" y="20" width="180" height="40" rx="8" fill="#2E3048" stroke="#2E3048" stroke-width="2" opacity="1"/>
<polygon points="110,100 200,150 110,200 20,150" fill="#F9E4C0" stroke="#F2CC8F" stroke-width="2" opacity="1"/>
<polyline points="110,60 110,100" fill="none" stroke="#1e1e1e" stroke-width="2" opacity="1" marker-end="url(#arrowhead)"/>
<rect x="270" y="120" width="140" height="40" rx="8" fill="#C8E0D2" stroke="#4A8C6F" stroke-width="2" opacity="1"/>
<polyline points="200,150 270,140" fill="none" stroke="#1e1e1e" stroke-width="2" opacity="1" marker-end="url(#arrowhead)"/>
<polygon points="110,240 200,290 110,340 20,290" fill="#F9E4C0" stroke="#F2CC8F" stroke-width="2" opacity="1"/>
<polyline points="110,200 110,240" fill="none" stroke="#1e1e1e" stroke-width="2" opacity="1" marker-end="url(#arrowhead)"/>
<rect x="270" y="260" width="140" height="40" rx="8" fill="#C8E0D2" stroke="#4A8C6F" stroke-width="2" opacity="1"/>
<polyline points="200,290 270,280" fill="none" stroke="#1e1e1e" stroke-width="2" opacity="1" marker-end="url(#arrowhead)"/>
<polygon points="110,380 200,430 110,480 20,430" fill="#F9E4C0" stroke="#F2CC8F" stroke-width="2" opacity="1"/>
<polyline points="110,340 110,380" fill="none" stroke="#1e1e1e" stroke-width="2" opacity="1" marker-end="url(#arrowhead)"/>
<rect x="270" y="400" width="140" height="40" rx="8" fill="#C8E0D2" stroke="#4A8C6F" stroke-width="2" opacity="1"/>
<polyline points="200,430 270,420" fill="none" stroke="#1e1e1e" stroke-width="2" opacity="1" marker-end="url(#arrowhead)"/>
<rect x="40" y="520" width="140" height="40" rx="8" fill="#F0AA8F" stroke="#E07A5F" stroke-width="2" opacity="1"/>
<polyline points="110,480 110,520" fill="none" stroke="#1e1e1e" stroke-width="2" opacity="1" marker-end="url(#arrowhead)"/>
<rect x="470" y="260" width="120" height="40" rx="8" fill="#4A8C6F" stroke="#4A8C6F" stroke-width="2" opacity="1"/>
<polyline points="410,140 470,270" fill="none" stroke="#1e1e1e" stroke-width="2" opacity="1" marker-end="url(#arrowhead)"/>
<polyline points="410,280 470,280" fill="none" stroke="#1e1e1e" stroke-width="2" opacity="1" marker-end="url(#arrowhead)"/>
<polyline points="410,420 470,290" fill="none" stroke="#1e1e1e" stroke-width="2" opacity="1" marker-end="url(#arrowhead)"/>
<text font-family="Meiryo, Yu Gothic, sans-serif" font-size="14" fill="#ffffff" text-anchor="middle" opacity="1"><tspan x="110" y="44">ツール実行要求</tspan></text>
<text font-family="Meiryo, Yu Gothic, sans-serif" font-size="12" fill="#2E3048" text-anchor="middle" opacity="1"><tspan x="110" y="152">cmd.exe PATH</tspan><tspan x="110" y="167.6">に存在？</tspan></text>
<text font-family="Meiryo, Yu Gothic, sans-serif" font-size="14" fill="#2E3048" text-anchor="middle" opacity="1"><tspan x="340" y="144">直接実行</tspan></text>
<text font-family="Meiryo, Yu Gothic, sans-serif" font-size="12" fill="#2E3048" text-anchor="middle" opacity="1"><tspan x="110" y="292">KNOWN_TOOL_PATHS</tspan><tspan x="110" y="307.6">に登録？</tspan></text>
<text font-family="Meiryo, Yu Gothic, sans-serif" font-size="14" fill="#2E3048" text-anchor="middle" opacity="1"><tspan x="340" y="284">フルパス実行</tspan></text>
<text font-family="Meiryo, Yu Gothic, sans-serif" font-size="12" fill="#2E3048" text-anchor="middle" opacity="1"><tspan x="110" y="432">Git Bash</tspan><tspan x="110" y="447.6">で発見？</tspan></text>
<text font-family="Meiryo, Yu Gothic, sans-serif" font-size="14" fill="#2E3048" text-anchor="middle" opacity="1"><tspan x="340" y="424">Git Bash 経由</tspan></text>
<text font-family="Meiryo, Yu Gothic, sans-serif" font-size="14" fill="#2E3048" text-anchor="middle" opacity="1"><tspan x="110" y="544">ツール未検出</tspan><tspan x="110" y="562.2">missing</tspan></text>
<text font-family="Meiryo, Yu Gothic, sans-serif" font-size="14" fill="#ffffff" text-anchor="middle" opacity="1"><tspan x="530" y="284">実行完了</tspan></text>
</svg>